# xmcd
#
# Track frame offsets:
#	150
#	13211
#	24669
#	37005
#	49809
#	62459
#	75038
#	88652
#	102056
#	115385
#	127662
#	139842
#	153057
#	166507
#	177432
#	189854
#	204288
#	217233
#	227228
#	239224
#	252881
#	265719
#	279024
#	289300
#	302375
#
# Disc length: 4202 seconds
# Revision: 0
# Processed by: cddbd v1.5.2PL0 Copyright (c) Steve Scherf et al.
# Submitted via: dBpowerAMP V12.0
#
DISCID=48106819
DTITLE=Various Artist - Classic Country Hits: Your Cheatin' Heart Disc 3
DYEAR=2005
DGENRE=Country
TTITLE0=Jimmy Wakely - My Heart Cries for You
TTITLE1=Ferlin Husky - A Dear John Letter
TTITLE2=Hank Williams - Lovesick Blues
TTITLE3=Carl Smith - Let Old Mother Nature Have Her Way
TTITLE4=Hank Snow - Rhumba Boogie
TTITLE5=Gene Autry - Have I Told You Lately That I Love You
TTITLE6=Pee Wee King - Slow Poke
TTITLE7=Stuart Hamblen - This Old House
TTITLE8=Lefty Frizzell - If You've Got the Money, I've Got the Time
TTITLE9=Al Dexter - Guitar Polka
TTITLE10=Ted Daffan - Born to Lose
TTITLE11=Little Jimmy Dickens - Hillbilly Fever
TTITLE12=Merle Travis - So Round, So Firm, So Fully Packed
TTITLE13=Webb Pierce - There Stands the Glass
TTITLE14=Elton Britt - There's a Star Spangled Banner Waving Somewhere
TTITLE15=Red Foley - (There'll Be) Peace in the Valley (For Me)
TTITLE16=Roy Acuff - Wabash Cannonball
TTITLE17=Jimmy Wakely - Slipping Around
TTITLE18=Jim Reeves - Mexican Joe
TTITLE19=Tennessee Ernie Ford - Mule Train
TTITLE20=Tex Williams - Smoke, Smoke, Smoke That Cigarette
TTITLE21=Tex Ritter - Jealous Heart
TTITLE22=Hank Locklin - Let Me Be the One
TTITLE23=Hank Williams - Jambalaya (On the Bayou)
TTITLE24=Eddy Arnold - Anytime
EXTD=
EXTT0=
EXTT1=
EXTT2=
EXTT3=
EXTT4=
EXTT5=
EXTT6=
EXTT7=
EXTT8=
EXTT9=
EXTT10=
EXTT11=
EXTT12=
EXTT13=
EXTT14=
EXTT15=
EXTT16=
EXTT17=
EXTT18=
EXTT19=
EXTT20=
EXTT21=
EXTT22=
EXTT23=
EXTT24=
PLAYORDER=
